<svg xmlns="http://www.w3.org/2000/svg" viewBox="0 0 64 64" role="img" aria-label="Portfolio favicon">
  <rect width="64" height="64" rx="16" fill="#0f172a" />
  <path d="M20 18h24c4 0 8 4 8 8v2c0 4-3 7-7 8 4 1 7 4 7 8v2c0 4-4 8-8 8H20c-4 0-8-4-8-8v-2c0-4 3-7 7-8-4-1-7-4-7-8v-2c0-4 4-8 8-8Z" fill="#f8fafc" />
  <path d="M25 23h14" stroke="#0f172a" stroke-width="3" stroke-linecap="round" />
  <path d="M25 32h10" stroke="#0f172a" stroke-width="3" stroke-linecap="round" />
  <path d="M25 41h14" stroke="#0f172a" stroke-width="3" stroke-linecap="round" />
</svg>
